<svg width="11" height="21" viewBox="0 0 11 21" fill="none" xmlns="http://www.w3.org/2000/svg">
<path d="M5.49995 0C7.01872 0 8.24995 1.17526 8.24995 2.625C8.24995 4.07474 7.01872 5.25 5.49995 5.25C3.98117 5.25 2.74995 4.07474 2.74995 2.625C2.74995 1.17526 3.98117 0 5.49995 0ZM10.6254 14.5269L8.56289 6.65187C8.50711 6.4389 8.37835 6.24984 8.19708 6.11474C8.01581 5.97964 7.79243 5.90625 7.56245 5.90625H7.07432C6.09846 6.33458 4.9435 6.35307 3.92557 5.90625H3.43745C3.20747 5.90625 2.98409 5.97964 2.80282 6.11474C2.62154 6.24984 2.49279 6.4389 2.43701 6.65187L0.374505 14.5269C0.211998 15.1473 0.703904 15.75 1.37495 15.75H3.7812V20.0156C3.7812 20.5593 4.2429 21 4.81245 21H6.18745C6.757 21 7.2187 20.5593 7.2187 20.0156V15.75H9.62495C10.2949 15.75 10.7882 15.1483 10.6254 14.5269Z" fill="#5A5A5A" fill-opacity="0.8"/>
</svg>
