<svg width="8" height="21" viewBox="0 0 8 21" fill="none" xmlns="http://www.w3.org/2000/svg">
<g clip-path="url(#clip0)">
<path d="M3.9375 0C5.38724 0 6.5625 1.17526 6.5625 2.625C6.5625 4.07474 5.38724 5.25 3.9375 5.25C2.48776 5.25 1.3125 4.07474 1.3125 2.625C1.3125 1.17526 2.48776 0 3.9375 0ZM5.90625 5.90625H5.44031C4.50881 6.33458 3.40635 6.35307 2.43469 5.90625H1.96875C0.881426 5.90625 0 6.78768 0 7.875V13.4531C0 13.9968 0.440713 14.4375 0.984375 14.4375H1.64062V20.0156C1.64062 20.5593 2.08134 21 2.625 21H5.25C5.79366 21 6.23438 20.5593 6.23438 20.0156V14.4375H6.89062C7.43429 14.4375 7.875 13.9968 7.875 13.4531V7.875C7.875 6.78768 6.99357 5.90625 5.90625 5.90625Z" fill="#5A5A5A" fill-opacity="0.8"/>
</g>
<defs>
<clipPath id="clip0">
<rect width="7.875" height="21" fill="white"/>
</clipPath>
</defs>
</svg>
