<svg id="Layer_1" enable-background="new 0 0 511.998 511.998" height="512" viewBox="0 0 511.998 511.998" width="512" xmlns="http://www.w3.org/2000/svg"><g><path d="m352.615 116.722h-317.503l-15.765 269.872c-1.228 21.013 6.051 41.017 20.493 56.328 14.443 15.312 33.989 23.744 55.037 23.744h196.685l70.884-181.662z" fill="#ffde55"/><path d="m362.446 285.004-9.831-168.282h-158.751v349.944h97.698z" fill="#ffb655"/><g><path d="m281.635 184.31h-30v-96.539c0-31.855-25.916-57.771-57.771-57.771s-57.772 25.916-57.772 57.771v96.538h-30v-96.538c-.001-48.397 39.374-87.771 87.772-87.771s87.771 39.374 87.771 87.771z" fill="#495959"/></g><path d="m193.864 0v30c31.855 0 57.771 25.916 57.771 57.771v96.538h30v-96.538c0-48.397-39.374-87.771-87.771-87.771z" fill="#323c3c"/><ellipse cx="369.451" cy="388.665" fill="#00cc76" rx="123.333" ry="123.333" transform="matrix(.707 -.707 .707 .707 -166.618 375.078)"/><path d="m369.45 265.331v246.667c68.007 0 123.334-55.327 123.334-123.333 0-68.007-55.327-123.334-123.334-123.334z" fill="#009986"/><g><path d="m353.131 443.796-48.725-55.108 22.475-19.872 27.217 30.785 56.368-58.388 21.583 20.836z" fill="#fff5f5"/></g><path d="m410.466 341.213-41.016 42.485v43.193l62.599-64.842z" fill="#e1ebf0"/></g></svg>