<svg width="46" height="46" viewBox="0 0 46 46" fill="none" xmlns="http://www.w3.org/2000/svg">
<path d="M23 17.012C19.7027 17.012 17.0119 19.7028 17.0119 23.0001C17.0119 26.2973 19.7027 28.9881 23 28.9881C26.2972 28.9881 28.9881 26.2973 28.9881 23.0001C28.9881 19.7028 26.2972 17.012 23 17.012ZM40.9597 23.0001C40.9597 20.5204 40.9822 18.0632 40.8429 15.588C40.7037 12.713 40.0478 10.1614 37.9455 8.05905C35.8386 5.95221 33.2916 5.30085 30.4166 5.16159C27.9369 5.02233 25.4797 5.04479 23.0045 5.04479C20.5248 5.04479 18.0675 5.02233 15.5924 5.16159C12.7174 5.30085 10.1658 5.95671 8.06345 8.05905C5.95661 10.1659 5.30524 12.713 5.16598 15.588C5.02673 18.0676 5.04919 20.5249 5.04919 23.0001C5.04919 25.4753 5.02673 27.937 5.16598 30.4122C5.30524 33.2872 5.9611 35.8387 8.06345 37.9411C10.1703 40.0479 12.7174 40.6993 15.5924 40.8385C18.072 40.9778 20.5293 40.9553 23.0045 40.9553C25.4841 40.9553 27.9414 40.9778 30.4166 40.8385C33.2916 40.6993 35.8431 40.0434 37.9455 37.9411C40.0523 35.8342 40.7037 33.2872 40.8429 30.4122C40.9867 27.937 40.9597 25.4798 40.9597 23.0001V23.0001ZM23 32.2135C17.9013 32.2135 13.7865 28.0987 13.7865 23.0001C13.7865 17.9014 17.9013 13.7866 23 13.7866C28.0986 13.7866 32.2134 17.9014 32.2134 23.0001C32.2134 28.0987 28.0986 32.2135 23 32.2135ZM32.5908 15.561C31.4004 15.561 30.439 14.5997 30.439 13.4092C30.439 12.2188 31.4004 11.2575 32.5908 11.2575C33.7812 11.2575 34.7425 12.2188 34.7425 13.4092C34.7429 13.6919 34.6875 13.9719 34.5795 14.2331C34.4715 14.4943 34.313 14.7317 34.1131 14.9316C33.9132 15.1314 33.6759 15.2899 33.4147 15.3979C33.1534 15.5059 32.8735 15.5614 32.5908 15.561V15.561Z" fill="#5A5A5A"/>
</svg>
