<svg width="46" height="46" viewBox="0 0 46 46" fill="none" xmlns="http://www.w3.org/2000/svg">
<path d="M41.6875 11.4237C40.3128 12.0166 38.8169 12.4434 37.2761 12.6096C38.8758 11.6592 40.0738 10.1578 40.6453 8.38693C39.1441 9.27993 37.4996 9.90612 35.7847 10.2377C35.068 9.47146 34.2011 8.86104 33.2381 8.44447C32.2751 8.02789 31.2367 7.81411 30.1875 7.81642C25.9423 7.81642 22.5283 11.2574 22.5283 15.4801C22.5283 16.0731 22.6002 16.666 22.717 17.2365C16.3605 16.9041 10.6914 13.8674 6.92244 9.21799C6.23569 10.391 5.87582 11.7265 5.88025 13.0858C5.88025 15.7451 7.2324 18.0901 9.29431 19.4692C8.07919 19.4213 6.89253 19.0873 5.83083 18.4944V18.5887C5.83083 22.3127 8.46325 25.3988 11.9717 26.1086C11.3129 26.2797 10.6353 26.3673 9.95466 26.3692C9.45603 26.3692 8.98435 26.3197 8.50818 26.2524C9.47849 29.2891 12.3041 31.4947 15.6687 31.5666C13.0363 33.6285 9.73904 34.8414 6.15876 34.8414C5.51638 34.8414 4.92341 34.819 4.30798 34.7471C7.70408 36.9258 11.7336 38.1836 16.073 38.1836C30.1605 38.1836 37.8691 26.5129 37.8691 16.383C37.8691 16.0506 37.8691 15.7182 37.8466 15.3858C39.338 14.2942 40.6453 12.942 41.6875 11.4237Z" fill="#5A5A5A"/>
</svg>
