<svg width="46" height="46" viewBox="0 0 46 46" fill="none" xmlns="http://www.w3.org/2000/svg">
<path d="M42.285 13.3014C42.0558 12.448 41.6066 11.6698 40.9822 11.0447C40.3578 10.4195 39.5802 9.96927 38.7271 9.73906C35.5871 8.89453 23 8.89453 23 8.89453C23 8.89453 10.4129 8.89453 7.27285 9.73457C6.41943 9.96403 5.6414 10.414 5.0169 11.0393C4.3924 11.6646 3.94342 12.4432 3.71504 13.2969C2.875 16.4414 2.875 23 2.875 23C2.875 23 2.875 29.5586 3.71504 32.6986C4.17773 34.4326 5.54336 35.7982 7.27285 36.2609C10.4129 37.1055 23 37.1055 23 37.1055C23 37.1055 35.5871 37.1055 38.7271 36.2609C40.4611 35.7982 41.8223 34.4326 42.285 32.6986C43.125 29.5586 43.125 23 43.125 23C43.125 23 43.125 16.4414 42.285 13.3014ZM19.002 29.0195V16.9805L29.4238 22.9551L19.002 29.0195Z" fill="#5A5A5A"/>
</svg>
