<svg width="32" height="32" viewBox="0 0 32 32" fill="none" xmlns="http://www.w3.org/2000/svg">
<path d="M16 0C7.16344 0 0 7.16344 0 16C0 24.8366 7.16344 32 16 32C24.8366 32 32 24.8366 32 16C32 7.16344 24.8366 0 16 0ZM7.93555 6.75976L10.7832 7.65429C11.1602 7.77811 11.4113 8.12819 11.4551 8.48632L11.6152 10.0546L24.5098 11.4941C25.0634 11.6013 25.4525 12.1013 25.375 12.6152L24.5742 17.1269C24.4723 17.5988 24.0814 17.9223 23.6465 17.9276H12.1914L11.9668 19.2069H22.8457C23.4146 19.227 23.8312 19.6601 23.8379 20.1659C23.8143 20.7429 23.3492 21.1206 22.8457 21.1269H10.8145C10.2076 21.0767 9.76213 20.5958 9.85547 20.0077L10.3672 17.1913L9.5664 9.31835L7.35936 8.61525C7.10336 8.52992 6.9112 8.36941 6.7832 8.13475C6.54101 7.62723 6.76723 7.06531 7.19923 6.82224C7.44579 6.69408 7.68659 6.67811 7.93555 6.75976V6.75976ZM12.2715 21.6797C13.0999 21.6797 13.7715 22.3513 13.7715 23.1797C13.7715 24.0081 13.0999 24.6797 12.2715 24.6797C11.4431 24.6797 10.7715 24.0081 10.7715 23.1797C10.7715 22.3513 11.4431 21.6797 12.2715 21.6797ZM21.0762 21.6797C21.9046 21.6797 22.5762 22.3513 22.5762 23.1797C22.5762 24.0081 21.9046 24.6797 21.0762 24.6797C20.2478 24.6797 19.5762 24.0081 19.5762 23.1797C19.5762 22.3513 20.2478 21.6797 21.0762 21.6797Z" fill="#606060"/>
</svg>
