<svg width="137" height="123" viewBox="0 0 137 123" fill="none" xmlns="http://www.w3.org/2000/svg">
<path d="M10.248 0L0 10.248V22.6535L22.6535 0H10.248Z" fill="#5A5A5A"/>
<path d="M129.988 0L7.01184 122.976H19.4174L137 5.3937V0H129.988Z" fill="#5A5A5A"/>
<path d="M137 17.2598L31.2835 122.976H43.689L137 29.6654V17.2598Z" fill="#5A5A5A"/>
<path d="M137 40.9921L55.0158 122.976H67.4213L137 53.3976V40.9921Z" fill="#5A5A5A"/>
<path d="M137 65.2638L78.7481 122.976H91.1536L137 77.1299V65.2638Z" fill="#5A5A5A"/>
<path d="M137 88.9961L103.02 122.976H114.886L137 100.862V88.9961Z" fill="#5A5A5A"/>
<path d="M137 112.728L126.752 122.976H137V112.728Z" fill="#5A5A5A"/>
<path d="M0 34.5197L34.5197 0H46.3858L0 46.3858V34.5197Z" fill="#5A5A5A"/>
<path d="M58.252 0L0 58.252V70.6575L70.6575 0H58.252Z" fill="#5A5A5A"/>
<path d="M94.3898 0H81.9843L0 81.9843V94.3898L94.3898 0Z" fill="#5A5A5A"/>
<path d="M106.256 0L0 106.256V118.661L118.122 0H106.256Z" fill="#5A5A5A"/>
</svg>
